# xmcd
# Track frame offsets:
# 150
# 12003
# 27457
# 40980
# 55868
# 72339
# 87995
# 99777
# 115229
# 126153
# 139748
# 155598
# 171597
# 196291
# 209001
#
# Disc length: 2878 seconds
# Revision: 0
# Processed by: cddbd v1.4PL0 Copyright (c) Steve Scherf et al.
# Submitted via: VisiTrax 2.9.5.180 - For more info visit www.synapsa.com
#
DISCID=d50b3c0f
DTITLE=Harry Cowboys - Sted til sted
DYEAR=1900
DGENRE=
TTITLE0=Mine cowboyboots
TTITLE1=Whiskey Joe
TTITLE2=Gamle minner
TTITLE3=Du er alt for mig
TTITLE4=Rødmalt solnedgang
TTITLE5=Syrlig streng
TTITLE6=Trinity
TTITLE7=Så nær
TTITLE8=Joker i ermet
TTITLE9=Fata morgana
TTITLE10=Cowboyens hverdag
TTITLE11=Cowgirl
TTITLE12=Livet på spell
TTITLE13=Skulle ønske
TTITLE14=Du er det beste
EXTD=
EXTT0=
EXTT1=
EXTT2=
EXTT3=
EXTT4=
EXTT5=
EXTT6=
EXTT7=
EXTT8=
EXTT9=
EXTT10=
EXTT11=
EXTT12=
EXTT13=
EXTT14=
PLAYORDER=
